<mxfile host="app.diagrams.net" agent="Mozilla/5.0 (X11; Linux x86_64; rv:128.0) Gecko/20100101 Firefox/128.0" version="26.0.11">
  <diagram name="第 1 页" id="aH6ZTaXwP5k0bfcdlkgT">
    <mxGraphModel dx="1234" dy="411" grid="1" gridSize="10" guides="1" tooltips="1" connect="1" arrows="1" fold="1" page="1" pageScale="1" pageWidth="827" pageHeight="1169" math="1" shadow="0">
      <root>
        <mxCell id="0" />
        <mxCell id="1" parent="0" />
        <mxCell id="OK1sKgkIxB2whGgdd0nA-53" value="" style="rounded=1;whiteSpace=wrap;html=1;fillColor=none;" parent="1" vertex="1">
          <mxGeometry x="194" y="195" width="250" height="310" as="geometry" />
        </mxCell>
        <mxCell id="rXJ4VWKaILnmn4KEP7v7-4" value="" style="rounded=1;whiteSpace=wrap;html=1;fillColor=none;" parent="1" vertex="1">
          <mxGeometry x="569" y="200" width="280" height="300" as="geometry" />
        </mxCell>
        <mxCell id="OK1sKgkIxB2whGgdd0nA-46" value="" style="rounded=0;whiteSpace=wrap;html=1;fillColor=none;" parent="1" vertex="1">
          <mxGeometry x="588.5" y="440" width="90" height="40" as="geometry" />
        </mxCell>
        <mxCell id="OK1sKgkIxB2whGgdd0nA-2" style="edgeStyle=orthogonalEdgeStyle;rounded=0;orthogonalLoop=1;jettySize=auto;html=1;exitX=1;exitY=0.5;exitDx=0;exitDy=0;entryX=0;entryY=0.5;entryDx=0;entryDy=0;" parent="1" source="OK1sKgkIxB2whGgdd0nA-4" target="OK1sKgkIxB2whGgdd0nA-7" edge="1">
          <mxGeometry relative="1" as="geometry" />
        </mxCell>
        <mxCell id="OK1sKgkIxB2whGgdd0nA-3" style="edgeStyle=orthogonalEdgeStyle;rounded=0;orthogonalLoop=1;jettySize=auto;html=1;exitX=0.5;exitY=1;exitDx=0;exitDy=0;entryX=0.5;entryY=0;entryDx=0;entryDy=0;" parent="1" source="OK1sKgkIxB2whGgdd0nA-4" target="OK1sKgkIxB2whGgdd0nA-17" edge="1">
          <mxGeometry relative="1" as="geometry" />
        </mxCell>
        <mxCell id="OK1sKgkIxB2whGgdd0nA-4" value="&lt;font style=&quot;font-size: 20px;&quot;&gt;FWD 1&lt;/font&gt;" style="rounded=1;whiteSpace=wrap;html=1;fontFamily=Helvetica;" parent="1" vertex="1">
          <mxGeometry x="332" y="210" width="90" height="60" as="geometry" />
        </mxCell>
        <mxCell id="OK1sKgkIxB2whGgdd0nA-6" style="edgeStyle=orthogonalEdgeStyle;rounded=0;orthogonalLoop=1;jettySize=auto;html=1;exitX=0.5;exitY=1;exitDx=0;exitDy=0;" parent="1" source="OK1sKgkIxB2whGgdd0nA-7" target="OK1sKgkIxB2whGgdd0nA-15" edge="1">
          <mxGeometry relative="1" as="geometry" />
        </mxCell>
        <mxCell id="OK1sKgkIxB2whGgdd0nA-7" value="&lt;font style=&quot;font-size: 20px;&quot;&gt;FWD 2&lt;/font&gt;" style="rounded=1;whiteSpace=wrap;html=1;fontFamily=Helvetica;" parent="1" vertex="1">
          <mxGeometry x="588" y="210" width="90" height="60" as="geometry" />
        </mxCell>
        <mxCell id="OK1sKgkIxB2whGgdd0nA-13" style="edgeStyle=orthogonalEdgeStyle;rounded=0;orthogonalLoop=1;jettySize=auto;html=1;exitX=0;exitY=0.5;exitDx=0;exitDy=0;" parent="1" source="OK1sKgkIxB2whGgdd0nA-15" target="OK1sKgkIxB2whGgdd0nA-17" edge="1">
          <mxGeometry relative="1" as="geometry" />
        </mxCell>
        <mxCell id="OK1sKgkIxB2whGgdd0nA-15" value="&lt;font style=&quot;font-size: 20px;&quot;&gt;BWD 2&lt;/font&gt;" style="rounded=1;whiteSpace=wrap;html=1;fontFamily=Helvetica;" parent="1" vertex="1">
          <mxGeometry x="588" y="329" width="90" height="60" as="geometry" />
        </mxCell>
        <mxCell id="OK1sKgkIxB2whGgdd0nA-17" value="&lt;font style=&quot;font-size: 20px;&quot;&gt;BWD 1&lt;/font&gt;" style="rounded=1;whiteSpace=wrap;html=1;fontFamily=Helvetica;" parent="1" vertex="1">
          <mxGeometry x="332" y="329" width="90" height="60" as="geometry" />
        </mxCell>
        <mxCell id="OK1sKgkIxB2whGgdd0nA-18" style="rounded=0;orthogonalLoop=1;jettySize=auto;html=1;exitX=0;exitY=0.5;exitDx=0;exitDy=0;entryX=1;entryY=0.5;entryDx=0;entryDy=0;" parent="1" source="OK1sKgkIxB2whGgdd0nA-19" target="OK1sKgkIxB2whGgdd0nA-15" edge="1">
          <mxGeometry relative="1" as="geometry">
            <mxPoint x="684" y="359" as="targetPoint" />
          </mxGeometry>
        </mxCell>
        <mxCell id="OK1sKgkIxB2whGgdd0nA-19" value="&lt;font style=&quot;font-size: 20px;&quot; face=&quot;Comic Sans MS&quot;&gt;&lt;br&gt;&lt;/font&gt;" style="rounded=1;whiteSpace=wrap;html=1;" parent="1" vertex="1">
          <mxGeometry x="764" y="271" width="70" height="60" as="geometry" />
        </mxCell>
        <mxCell id="OK1sKgkIxB2whGgdd0nA-20" value="" style="endArrow=classic;html=1;rounded=0;entryX=0;entryY=0.5;entryDx=0;entryDy=0;" parent="1" target="OK1sKgkIxB2whGgdd0nA-19" edge="1">
          <mxGeometry width="50" height="50" relative="1" as="geometry">
            <mxPoint x="680" y="240" as="sourcePoint" />
            <mxPoint x="724" y="340" as="targetPoint" />
          </mxGeometry>
        </mxCell>
        <mxCell id="OK1sKgkIxB2whGgdd0nA-23" value="&lt;font style=&quot;font-size: 18px;&quot; face=&quot;Helvetica&quot;&gt;Prediction&lt;/font&gt;&lt;font style=&quot;font-size: 18px;&quot;&gt;&lt;br&gt;&lt;/font&gt;" style="text;html=1;strokeColor=none;fillColor=none;align=center;verticalAlign=middle;whiteSpace=wrap;rounded=0;fontColor=#000000;fontFamily=Lucida Console;" parent="1" vertex="1">
          <mxGeometry x="738" y="238" width="90" height="20" as="geometry" />
        </mxCell>
        <mxCell id="OK1sKgkIxB2whGgdd0nA-25" value="" style="endArrow=classic;html=1;rounded=0;exitX=0.75;exitY=0;exitDx=0;exitDy=0;entryX=0.75;entryY=1;entryDx=0;entryDy=0;" parent="1" target="OK1sKgkIxB2whGgdd0nA-19" edge="1">
          <mxGeometry width="50" height="50" relative="1" as="geometry">
            <mxPoint x="816.75" y="351" as="sourcePoint" />
            <mxPoint x="744" y="301" as="targetPoint" />
          </mxGeometry>
        </mxCell>
        <mxCell id="OK1sKgkIxB2whGgdd0nA-26" value="&lt;font style=&quot;font-size: 18px;&quot;&gt;Label&lt;/font&gt;" style="text;html=1;strokeColor=none;fillColor=none;align=center;verticalAlign=middle;whiteSpace=wrap;rounded=0;fontColor=#000000;fontFamily=Helvetica;" parent="1" vertex="1">
          <mxGeometry x="743" y="358" width="80" height="20" as="geometry" />
        </mxCell>
        <mxCell id="OK1sKgkIxB2whGgdd0nA-37" value="&lt;font style=&quot;font-size: 18px;&quot; face=&quot;Helvetica&quot;&gt;Input&lt;/font&gt;" style="text;html=1;strokeColor=none;fillColor=none;align=center;verticalAlign=middle;whiteSpace=wrap;rounded=0;fontColor=#000000;fontFamily=Lucida Console;" parent="1" vertex="1">
          <mxGeometry x="225" y="229" width="60" height="20" as="geometry" />
        </mxCell>
        <mxCell id="OK1sKgkIxB2whGgdd0nA-38" value="" style="endArrow=classic;html=1;rounded=0;entryX=0;entryY=0.5;entryDx=0;entryDy=0;exitX=1;exitY=0.5;exitDx=0;exitDy=0;" parent="1" source="OK1sKgkIxB2whGgdd0nA-37" target="OK1sKgkIxB2whGgdd0nA-4" edge="1">
          <mxGeometry width="50" height="50" relative="1" as="geometry">
            <mxPoint x="282" y="240" as="sourcePoint" />
            <mxPoint x="312" y="130" as="targetPoint" />
          </mxGeometry>
        </mxCell>
        <mxCell id="OK1sKgkIxB2whGgdd0nA-41" value="$$\boldsymbol{\frac{\partial L}{\partial W^{[1]}&lt;br&gt;}}$$" style="text;html=1;strokeColor=none;fillColor=none;align=center;verticalAlign=middle;whiteSpace=wrap;rounded=0;" parent="1" vertex="1">
          <mxGeometry x="328" y="446" width="60" height="30" as="geometry" />
        </mxCell>
        <mxCell id="OK1sKgkIxB2whGgdd0nA-42" value="$$\boldsymbol{\frac{\partial L}{\partial b^{[1]}&lt;br&gt;}}$$" style="text;html=1;strokeColor=none;fillColor=none;align=center;verticalAlign=middle;whiteSpace=wrap;rounded=0;" parent="1" vertex="1">
          <mxGeometry x="373" y="446" width="60" height="30" as="geometry" />
        </mxCell>
        <mxCell id="OK1sKgkIxB2whGgdd0nA-43" value="" style="rounded=0;whiteSpace=wrap;html=1;fillColor=none;" parent="1" vertex="1">
          <mxGeometry x="332.5" y="440" width="90" height="40" as="geometry" />
        </mxCell>
        <mxCell id="OK1sKgkIxB2whGgdd0nA-44" value="$$\boldsymbol{\frac{\partial L}{\partial W^{[2]}&lt;br&gt;}}$$" style="text;html=1;strokeColor=none;fillColor=none;align=center;verticalAlign=middle;whiteSpace=wrap;rounded=0;" parent="1" vertex="1">
          <mxGeometry x="585" y="446" width="60" height="30" as="geometry" />
        </mxCell>
        <mxCell id="OK1sKgkIxB2whGgdd0nA-45" value="$$\boldsymbol{\frac{\partial L}{\partial b^{[2]}&lt;br&gt;}}$$" style="text;html=1;strokeColor=none;fillColor=none;align=center;verticalAlign=middle;whiteSpace=wrap;rounded=0;" parent="1" vertex="1">
          <mxGeometry x="630" y="446" width="60" height="30" as="geometry" />
        </mxCell>
        <mxCell id="OK1sKgkIxB2whGgdd0nA-50" value="" style="endArrow=classic;html=1;rounded=0;exitX=0.5;exitY=1;exitDx=0;exitDy=0;" parent="1" source="OK1sKgkIxB2whGgdd0nA-17" target="OK1sKgkIxB2whGgdd0nA-43" edge="1">
          <mxGeometry width="50" height="50" relative="1" as="geometry">
            <mxPoint x="222" y="480" as="sourcePoint" />
            <mxPoint x="272" y="430" as="targetPoint" />
          </mxGeometry>
        </mxCell>
        <mxCell id="OK1sKgkIxB2whGgdd0nA-51" value="" style="endArrow=classic;html=1;rounded=0;exitX=0.5;exitY=1;exitDx=0;exitDy=0;entryX=0.5;entryY=0;entryDx=0;entryDy=0;" parent="1" source="OK1sKgkIxB2whGgdd0nA-15" target="OK1sKgkIxB2whGgdd0nA-46" edge="1">
          <mxGeometry width="50" height="50" relative="1" as="geometry">
            <mxPoint x="678" y="639" as="sourcePoint" />
            <mxPoint x="728" y="589" as="targetPoint" />
          </mxGeometry>
        </mxCell>
        <mxCell id="OK1sKgkIxB2whGgdd0nA-118" style="edgeStyle=orthogonalEdgeStyle;rounded=0;orthogonalLoop=1;jettySize=auto;html=1;exitX=0.5;exitY=1;exitDx=0;exitDy=0;" parent="1" source="OK1sKgkIxB2whGgdd0nA-26" target="OK1sKgkIxB2whGgdd0nA-26" edge="1">
          <mxGeometry relative="1" as="geometry" />
        </mxCell>
        <mxCell id="OK1sKgkIxB2whGgdd0nA-119" value="$$L$$" style="text;html=1;strokeColor=none;fillColor=none;align=center;verticalAlign=middle;whiteSpace=wrap;rounded=0;fontSize=18;" parent="1" vertex="1">
          <mxGeometry x="778" y="285" width="43" height="30" as="geometry" />
        </mxCell>
        <mxCell id="OK1sKgkIxB2whGgdd0nA-121" value="&lt;font style=&quot;font-size: 32px;&quot;&gt;GPU 0&lt;/font&gt;" style="text;html=1;strokeColor=none;fillColor=none;align=center;verticalAlign=middle;whiteSpace=wrap;rounded=0;fontStyle=1" parent="1" vertex="1">
          <mxGeometry x="202" y="470" width="120" height="30" as="geometry" />
        </mxCell>
        <mxCell id="rXJ4VWKaILnmn4KEP7v7-6" value="&lt;font style=&quot;font-size: 24px;&quot; face=&quot;Courier New&quot;&gt;&lt;b&gt;MPI.Recv&lt;/b&gt;&lt;/font&gt;" style="text;html=1;strokeColor=none;fillColor=none;align=center;verticalAlign=middle;whiteSpace=wrap;rounded=0;" parent="1" vertex="1">
          <mxGeometry x="337" y="400.00000000000006" width="217" height="30" as="geometry" />
        </mxCell>
        <mxCell id="rXJ4VWKaILnmn4KEP7v7-7" value="&lt;font style=&quot;font-size: 24px;&quot; face=&quot;Courier New&quot;&gt;&lt;b&gt;MPI.Send&lt;/b&gt;&lt;/font&gt;" style="text;html=1;strokeColor=none;fillColor=none;align=center;verticalAlign=middle;whiteSpace=wrap;rounded=0;" parent="1" vertex="1">
          <mxGeometry x="332.5" y="170.00000000000003" width="217" height="30" as="geometry" />
        </mxCell>
        <mxCell id="rXJ4VWKaILnmn4KEP7v7-8" value="&lt;font style=&quot;font-size: 32px;&quot;&gt;GPU 1&lt;/font&gt;" style="text;html=1;strokeColor=none;fillColor=none;align=center;verticalAlign=middle;whiteSpace=wrap;rounded=0;fontStyle=1" parent="1" vertex="1">
          <mxGeometry x="723" y="460" width="120" height="30" as="geometry" />
        </mxCell>
        <mxCell id="imx6infDJn1aOwcLDLps-1" value="&lt;font style=&quot;font-size: 24px;&quot; face=&quot;Courier New&quot;&gt;&lt;b&gt;MPI.Recv&lt;/b&gt;&lt;/font&gt;" style="text;html=1;strokeColor=none;fillColor=none;align=center;verticalAlign=middle;whiteSpace=wrap;rounded=0;" parent="1" vertex="1">
          <mxGeometry x="477" y="170.00000000000003" width="217" height="30" as="geometry" />
        </mxCell>
        <mxCell id="imx6infDJn1aOwcLDLps-2" value="&lt;font style=&quot;font-size: 24px;&quot; face=&quot;Courier New&quot;&gt;&lt;b&gt;MPI.Send&lt;/b&gt;&lt;/font&gt;" style="text;html=1;strokeColor=none;fillColor=none;align=center;verticalAlign=middle;whiteSpace=wrap;rounded=0;" parent="1" vertex="1">
          <mxGeometry x="467" y="400.00000000000006" width="217" height="30" as="geometry" />
        </mxCell>
      </root>
    </mxGraphModel>
  </diagram>
</mxfile>
